<?xml version="1.0" encoding="UTF-8"?>
<svg width="24px" height="24px" viewBox="0 0 24 24" version="1.1" xmlns="http://www.w3.org/2000/svg" xmlns:xlink="http://www.w3.org/1999/xlink">
    <!-- Generator: sketchtool 50.2 (55047) - http://www.bohemiancoding.com/sketch -->
    <title>F3F06C09-1C75-4AA1-B474-D0A214F44029</title>
    <desc>Created with sketchtool.</desc>
    <defs></defs>
    <g id="Splashpage-2" stroke="none" stroke-width="1" fill="none" fill-rule="evenodd">
        <g id="Splashpage---1440" transform="translate(-96.000000, -349.000000)">
            <g id="KPI_bar" transform="translate(96.000000, 307.000000)">
                <g id="icon/chat" transform="translate(0.000000, 42.000000)">
                    <g id="Chat_icon">
                        <path d="M22.7603478,10.7288182 C21.7455652,15.3889481 16.8406957,18.9350649 10.9565217,18.9350649 C10.1222609,18.9350649 9.28956522,18.8582727 8.46834783,18.7125779 C10.485913,20.4966818 13.6095652,21.3966234 16.8375652,20.9090455 L21.158087,23.0876299 C21.2316522,23.1244481 21.3114783,23.1428571 21.3913043,23.1428571 C21.4867826,23.1428571 21.5817391,23.1165584 21.6657391,23.064487 C21.8191304,22.9687597 21.9130435,22.7993961 21.9130435,22.6168831 L21.9130435,18.6042273 C23.2606957,17.3713442 24,15.8165649 24,14.2012987 C24,12.9663117 23.5633043,11.7734026 22.7603478,10.7288182 Z" id="Shape" fill="#E5A03E" fill-rule="nonzero"></path>
                        <path d="M10.9565217,0 C4.91478261,0 0,4.01107792 0,8.94155844 C0,10.8366429 0.720521739,12.6433636 2.08695652,14.1802597 L2.08695652,19.461039 C2.08695652,19.6435519 2.18086957,19.8123896 2.33426087,19.9086429 C2.41826087,19.9607143 2.51321739,19.987013 2.60869565,19.987013 C2.68852174,19.987013 2.76834783,19.9686039 2.84191304,19.9317857 L7.70973913,17.4781169 C8.77147826,17.7468896 9.86243478,17.8831169 10.9565217,17.8831169 C16.9982609,17.8831169 21.9130435,13.872039 21.9130435,8.94155844 C21.9130435,4.01107792 16.9982609,0 10.9565217,0 Z" id="Shape" fill="#FFCF35" fill-rule="nonzero"></path>
                        <rect id="Rectangle-15" fill="#FFFFFF" x="4.28571429" y="6" width="12.8571429" height="1.71428571" rx="0.857142857"></rect>
                        <rect id="Rectangle-15-Copy" fill="#FFFFFF" x="4.28571429" y="10.2857143" width="6.85714286" height="1.71428571" rx="0.857142857"></rect>
                    </g>
                </g>
            </g>
        </g>
    </g>
</svg>