<?xml version="1.0" encoding="UTF-8"?>
<svg width="16px" height="17px" viewBox="0 0 16 17" version="1.1" xmlns="http://www.w3.org/2000/svg" xmlns:xlink="http://www.w3.org/1999/xlink">
    <!-- Generator: sketchtool 52.2 (67145) - http://www.bohemiancoding.com/sketch -->
    <title>04D176FB-FBE1-4650-AA92-5EEFE63834B4</title>
    <desc>Created with sketchtool.</desc>
    <g id="Trippagina" stroke="none" stroke-width="1" fill="none" fill-rule="evenodd">
        <g id="Trip-Detail-program-Copy-2" transform="translate(-256.000000, -662.000000)" fill-rule="nonzero">
            <g id="Group-3" transform="translate(119.000000, 660.000000)">
                <g id="time" transform="translate(137.000000, 2.000000)">
                    <path d="M8,9.45454545 L3.63636364,9.45454545 L3.63636364,8 L7.27272727,8 L7.27272727,4.36363636 L8.72727273,4.36363636 L8.72727273,8.72727273 C8.72727273,9.12945455 8.40145455,9.45454545 8,9.45454545 Z" id="Shape" fill="#E5A03E"></path>
                    <path d="M14.5454545,8.72727273 C14.5454545,12.3367273 11.6094545,15.2727273 8,15.2727273 C4.39054545,15.2727273 1.45454545,12.3367273 1.45454545,8.72727273 C1.45454545,5.11781818 4.39054545,2.18181818 8,2.18181818 C9.44654545,2.18181818 10.8167273,2.65454545 11.9490909,3.51490909 L9.328,5.98254545 L15.9949091,6.69745455 L15.6814545,0 L13.0232727,2.50327273 C11.6050909,1.35418182 9.85090909,0.727272727 8,0.727272727 C3.58909091,0.727272727 0,4.31636364 0,8.72727273 C0,13.1381818 3.58909091,16.7272727 8,16.7272727 C12.4109091,16.7272727 16,13.1381818 16,8.72727273 L14.5454545,8.72727273 Z" id="Shape" fill="#FFCF35"></path>
                </g>
            </g>
        </g>
    </g>
</svg>