<?xml version="1.0" encoding="UTF-8"?>
<svg width="18px" height="16px" viewBox="0 0 18 16" version="1.1" xmlns="http://www.w3.org/2000/svg" xmlns:xlink="http://www.w3.org/1999/xlink">
    <!-- Generator: sketchtool 52.2 (67145) - http://www.bohemiancoding.com/sketch -->
    <title>323CA8EE-55B5-4355-8448-6AE55307C9C5</title>
    <desc>Created with sketchtool.</desc>
    <g id="Trippagina" stroke="none" stroke-width="1" fill="none" fill-rule="evenodd">
        <g id="Trip-Detail-program-Copy-2" transform="translate(-119.000000, -662.000000)" fill-rule="nonzero">
            <g id="Group-3" transform="translate(119.000000, 660.000000)">
                <g id="multiple-11" transform="translate(0.000000, 2.000000)">
                    <circle id="Oval" fill="#E5A03E" cx="3.36842105" cy="3.36842105" r="1.68421053"></circle>
                    <path d="M3.92982456,13.5232198 L3.92982456,8.07430341 C3.92982456,7.26840867 4.19031579,6.52136223 4.63157895,5.90454489 C4.58498246,5.90182043 4.53838596,5.89473684 4.49122807,5.89473684 L2.24561404,5.89473684 C1.00715789,5.89473684 0,6.87227245 0,8.07430341 L0,11.3436533 L1.12280702,11.3436533 L1.12280702,15.1578947 L5.05263158,15.1578947 L5.05263158,13.5232198 L3.92982456,13.5232198 Z" id="Shape" fill="#E5A03E"></path>
                    <circle id="Oval" fill="#E5A03E" cx="14.4736842" cy="3.36842105" r="1.68421053"></circle>
                    <path d="M13.9122807,13.5232198 L13.9122807,8.07430341 C13.9122807,7.26840867 13.6517895,6.52136223 13.2105263,5.90454489 C13.2571228,5.90182043 13.3037193,5.89473684 13.3508772,5.89473684 L15.5964912,5.89473684 C16.8349474,5.89473684 17.8421053,6.87227245 17.8421053,8.07430341 L17.8421053,11.3436533 L16.7192982,11.3436533 L16.7192982,15.1578947 L12.7894737,15.1578947 L12.7894737,13.5232198 L13.9122807,13.5232198 Z" id="Shape" fill="#E5A03E"></path>
                    <path d="M9.92481203,5.05263158 L7.7593985,5.05263158 C6.26688722,5.05263158 5.05263158,6.22191479 5.05263158,7.65914787 L5.05263158,11.8295739 L6.67669173,11.8295739 L6.67669173,16 L11.0075188,16 L11.0075188,11.8295739 L12.6315789,11.8295739 L12.6315789,7.65914787 C12.6315789,6.22191479 11.4173233,5.05263158 9.92481203,5.05263158 Z" id="Shape" fill="#FFCF35"></path>
                    <circle id="Oval" fill="#FFCF35" cx="8.84210526" cy="2.10526316" r="2.10526316"></circle>
                </g>
            </g>
        </g>
    </g>
</svg>