<?xml version="1.0" encoding="UTF-8"?>
<svg width="24px" height="24px" viewBox="0 0 24 24" version="1.1" xmlns="http://www.w3.org/2000/svg" xmlns:xlink="http://www.w3.org/1999/xlink">
    <!-- Generator: sketchtool 50.2 (55047) - http://www.bohemiancoding.com/sketch -->
    <title>19D2C76A-D8C5-483C-BD87-270E4896E90B</title>
    <desc>Created with sketchtool.</desc>
    <defs></defs>
    <g id="Landingspagina-2" stroke="none" stroke-width="1" fill="none" fill-rule="evenodd">
        <g id="102_desktop-1024-country-page-copy-2" transform="translate(-52.000000, -593.000000)">
            <g id="Intro" transform="translate(24.000000, 0.000000)">
                <g id="KPI_bar" transform="translate(18.000000, 567.000000)">
                    <g id="KPI1">
                        <g id="icon/backpack" transform="translate(10.000000, 26.000000)">
                            <g id="Backpack_icon">
                                <path d="M21.8181818,10.9090909 L21.8181818,24 L23.2727273,24 C23.7090909,24 24,23.6919786 24,23.2299465 L24,13.2192513 C24,11.9101604 23.0545455,10.9090909 21.8181818,10.9090909 Z" id="Shape" fill="#E5A03E" fill-rule="nonzero"></path>
                                <path d="M2.18181818,10.9090909 C0.945454545,10.9090909 0,11.9101604 0,13.2192513 L0,23.2299465 C0,23.6919786 0.290909091,24 0.727272727,24 L2.18181818,24 L2.18181818,10.9090909 Z" id="Shape" fill="#E5A03E" fill-rule="nonzero"></path>
                                <path d="M15.9173554,3.05454545 L15.1735537,3.05454545 L15.1735537,0.763636364 C15.1735537,0.305454545 14.8760331,0 14.4297521,0 L8.47933884,0 C8.03305785,0 7.73553719,0.305454545 7.73553719,0.763636364 L7.73553719,3.05454545 L6.99173554,3.05454545 C4.90909091,3.05454545 3.27272727,4.73454545 3.27272727,6.87272727 L3.27272727,11.4545455 C3.27272727,13.5927273 4.90909091,15.2727273 6.99173554,15.2727273 L7.73553719,15.2727273 L7.73553719,14.5090909 C7.73553719,14.0509091 8.03305785,13.7454545 8.47933884,13.7454545 C8.92561983,13.7454545 9.2231405,14.0509091 9.2231405,14.5090909 L9.2231405,15.2727273 L13.6859504,15.2727273 L13.6859504,14.5090909 C13.6859504,14.0509091 13.9834711,13.7454545 14.4297521,13.7454545 C14.8760331,13.7454545 15.1735537,14.0509091 15.1735537,14.5090909 L15.1735537,15.2727273 L15.9173554,15.2727273 C18,15.2727273 19.6363636,13.5927273 19.6363636,11.4545455 L19.6363636,6.87272727 C19.6363636,4.73454545 18,3.05454545 15.9173554,3.05454545 Z M13.6859504,3.05454545 L9.2231405,3.05454545 L9.2231405,1.52727273 L13.6859504,1.52727273 L13.6859504,3.05454545 Z" id="Shape" fill="#FFCF35" fill-rule="nonzero"></path>
                                <path d="M15.1735537,16.7873779 L15.1735537,17.5086401 C15.1735537,17.9413974 14.8760331,18.2299023 14.4297521,18.2299023 C13.9834711,18.2299023 13.6859504,17.9413974 13.6859504,17.5086401 L13.6859504,16.7873779 L9.2231405,16.7873779 L9.2231405,17.5086401 C9.2231405,17.9413974 8.92561983,18.2299023 8.47933884,18.2299023 C8.03305785,18.2299023 7.73553719,17.9413974 7.73553719,17.5086401 L7.73553719,16.7873779 L6.99173554,16.7873779 C5.50413223,16.7873779 4.23966942,16.2103681 3.27272727,15.2727273 L3.27272727,23.2787378 C3.27272727,23.7114951 3.57024793,24 4.01652893,24 L18.892562,24 C19.338843,24 19.6363636,23.7114951 19.6363636,23.2787378 L19.6363636,15.2727273 C18.6694215,16.2103681 17.4049587,16.7873779 15.9173554,16.7873779 L15.1735537,16.7873779 Z" id="Shape" fill="#FFCF35" fill-rule="nonzero"></path>
                            </g>
                        </g>
                    </g>
                </g>
            </g>
        </g>
    </g>
</svg>