<?xml version="1.0" encoding="UTF-8"?>
<svg width="24px" height="25px" viewBox="0 0 24 25" version="1.1" xmlns="http://www.w3.org/2000/svg" xmlns:xlink="http://www.w3.org/1999/xlink">
    <!-- Generator: sketchtool 50.2 (55047) - http://www.bohemiancoding.com/sketch -->
    <title>929D6D2C-FBFF-4FF4-90BC-60676FADD20A</title>
    <desc>Created with sketchtool.</desc>
    <defs></defs>
    <g id="Splashpage-2" stroke="none" stroke-width="1" fill="none" fill-rule="evenodd">
        <g id="Splashpage---1440" transform="translate(-96.000000, -307.000000)">
            <g id="KPI_bar" transform="translate(96.000000, 307.000000)">
                <g id="icon/transport">
                    <g id="transport_icon">
                        <path d="M11,3.35262767 C7.95933421,2.4462785 4.6873602,3.30751527 2.40363194,5.70093324 C1.89718046,6.23161913 1.4431745,6.85088937 1.05413835,7.54069901 C0.963728544,7.70187332 0.988385765,7.90692969 1.11441156,8.03898599 L3.94059867,11 C5.30261656,8.78087994 7.58791036,5.77024229 11,3.35262767 Z" id="Shape" fill="#E5A03E" fill-rule="nonzero"></path>
                        <path d="M13,20.061663 L15.9694543,22.885939 C16.0480286,22.9610713 16.1527943,23 16.2587878,23 C16.330405,23 16.4020222,22.9824821 16.4666823,22.9458891 C17.1546168,22.5601059 17.7717526,22.1085332 18.3025384,21.6036282 C20.7096953,19.313843 21.5629632,16.0383837 20.6307117,13 C18.2141423,16.4054812 15.2099026,18.6956556 13,20.061663 Z" id="Shape" fill="#E5A03E" fill-rule="nonzero"></path>
                        <path d="M3,19 C1.34614286,19 0,20.3457143 0,22 L0,24.5714286 C0,24.808 0.191571429,25 0.428571429,25 L3,25 C4.65385714,25 6,23.6542857 6,22 C6,20.3457143 4.65385714,19 3,19 Z" id="Shape" fill="#FFCF35" fill-rule="nonzero"></path>
                        <path d="M22.2692311,8 C23.190724,5.8113864 23.8362428,3.29766845 23.9993004,0.418455584 C24.0060123,0.305995612 23.9641621,0.196307542 23.8851996,0.116714393 C23.8058422,0.0367252581 23.6889776,-0.00604120997 23.5847471,0.000690548891 C20.701035,0.151561144 18.1868676,0.791474222 16,1.71214124 L22.2692311,8 Z" id="Shape" fill="#E5A03E" fill-rule="nonzero"></path>
                        <path d="M14.3602101,2 C6.25590433,5.77705942 3.06838281,13.4428655 3.02810374,13.5424468 C2.96983595,13.6877183 3.00385808,13.8536871 3.11452776,13.9642028 L9.0437636,19.8855792 C9.11845586,19.9601675 9.21856695,20 9.32024228,20 C9.37029782,20 9.42035337,19.9906276 9.46845362,19.9711019 C9.56739153,19.9304884 17.205946,16.7106936 21,8.63094179 L14.3602101,2 Z M14.5084214,11.4676415 C13.6895439,12.2853796 12.3622899,12.2853796 11.5438035,11.4676415 C10.7253171,10.6499035 10.724926,9.32449613 11.5438035,8.50714859 C12.3626809,7.68980105 13.689935,7.68941054 14.5084214,8.50714859 C15.3269078,9.32488664 15.3272988,10.6499035 14.5084214,11.4676415 Z" id="Shape" fill="#FFCF35" fill-rule="nonzero"></path>
                    </g>
                </g>
            </g>
        </g>
    </g>
</svg>